<?xml version="1.0" ?><svg xmlns="http://www.w3.org/2000/svg" xmlns:xlink="http://www.w3.org/1999/xlink" version="1.1" viewBox="0 0 510 510" style="enable-background:new 0 0 510 510;" xml:space="preserve"><g id="_x34_3_x2C__physiotherapy_x2C__physiotherapist_x2C__rehabilitation_x2C__patient_x2C__exercise_x2C__healthcare_and_medical"><g><g><path style="fill:#A2CAFC;" d="M246.33,93.68h-46C171.1,103.33,150,130.86,150,163.33V210c17.827,0,128.794,0,146.66,0v-46.67     C296.66,130.73,275.422,103.28,246.33,93.68z"/><path style="fill:#8D8290;" d="M223.33,10c24.85,0,45,20.15,45,45c0,16.45-8.83,30.83-22,38.68c-14.139,8.425-31.837,8.439-46,0     c-13.17-7.85-22-22.23-22-38.68C178.33,30.15,198.48,10,223.33,10z"/><path style="fill:#8BDFA2;" d="M455,230c-0.302,0,5.214,0.001-65.1-0.01L336.75,280L405,296l50-16c13.824,0,25-11.2,25-25     C480,241.19,468.81,230,455,230z"/><path style="fill:#ADECA3;" d="M469.57,82.56c6.872,11.972,2.734,27.249-9.23,34.13L390,157.07     c-0.03,72.926,0.081,70.154-0.1,72.92c-1.67,27.9-24.83,50.01-53.15,50.01L255,300l-105-20c-22.079,0-40-17.919-40-40     c0-22.09,17.91-40,40-40h73.33c2.965,0,112.923,0,116.67,0v-48.56c0-14.43,7.71-27.75,20.22-34.93l75.22-43.19     C447.42,66.45,462.7,70.58,469.57,82.56z"/><circle style="fill:#C19870;" cx="70" cy="240" r="40"/><g><path style="fill:#707DD4;" d="M460,360v115c0,13.81-11.19,25-25,25s-25-11.19-25-25V360H460z"/><path style="fill:#707DD4;" d="M100,360v115c0,13.81-11.19,25-25,25s-25-11.19-25-25V360H100z"/></g><path style="fill:#8A94DC;" d="M500,312.5v25c0,17.95-14.55,32.5-32.5,32.5c-18.449,0-399.854,0-425,0     C24.55,370,10,355.45,10,337.5v-25c0-17.95,14.55-32.5,32.5-32.5c6.606,0,408.4,0,425,0C485.45,280,500,294.55,500,312.5z"/><g><path d="M484.619,273.613C488.022,268.217,490,261.837,490,255c0-19.299-15.701-35-35-35h-55v-57.14l65.326-37.502      c16.525-9.506,22.636-30.841,12.919-47.773c-9.6-16.739-31.034-22.545-47.784-12.937l-75.221,43.189      c-15.568,8.938-25.24,25.645-25.24,43.598V190h-23.34v-26.67c0-31.225-17.058-58.005-41.853-72.271      C273.219,81.396,278.33,68.788,278.33,55c0-30.327-24.673-55-55-55s-55,24.673-55,55c0,13.776,5.103,26.375,13.501,36.034      C156.282,105.665,140,132.994,140,163.33v27.676c-12.192,2.484-22.783,9.419-30,19.028C100.87,197.878,86.339,190,70,190      c-27.57,0-50,22.43-50,50c0,11.944,4.215,22.92,11.229,31.529C13.249,276.481,0,292.968,0,312.5v25      c0,22.595,17.725,41.121,40,42.42V475c0,19.299,15.701,35,35,35s35-15.701,35-35v-95h290v95c0,19.299,15.701,35,35,35      s35-15.701,35-35v-95.08c22.275-1.299,40-19.826,40-42.42v-25C510,295.154,499.55,280.212,484.619,273.613z M470,255      c0,8.271-6.729,15-15,15h-72.161c7.74-8.243,13.302-18.548,15.753-30H455C463.271,240,470,246.729,470,255z M223.33,20      c19.299,0,35,15.701,35,35s-15.701,35-35,35s-35-15.701-35-35S204.031,20,223.33,20z M160,163.33      c0-26.011,15.751-49.107,39.592-58.723c14.854,7.136,32.384,7.25,47.475,0c22.959,9.296,39.593,31.857,39.593,58.723V190h-35.05      c1.11-3.13,1.72-6.494,1.72-10c0-16.542-13.458-30-30-30h-10v-10c0-5.522-4.478-10-10-10s-10,4.478-10,10v20      c0,5.522,4.478,10,10,10h20c5.514,0,10,4.486,10,10s-4.486,10-10,10H160V163.33z M150,210c7.114,0,175.943,0,190,0      c5.522,0,10-4.478,10-10v-48.564c0-10.811,5.824-20.871,15.199-26.254l75.216-43.187c7.197-4.128,16.359-1.65,20.481,5.542      c4.13,7.196,1.614,16.369-5.535,20.48l-70.34,40.38c-3.106,1.783-5.021,5.092-5.021,8.673v69.68      c0,23.848-19.402,43.25-43.25,43.25c-10.889,0-175.812,0-186.75,0c-16.542,0-30-13.458-30-30S133.458,210,150,210z M70,210      c16.542,0,30,13.458,30,30s-13.458,30-30,30s-30-13.458-30-30S53.458,210,70,210z M90,475c0,8.271-6.729,15-15,15      s-15-6.729-15-15v-95h30V475z M450,475c0,8.271-6.729,15-15,15s-15-6.729-15-15v-95h30V475z M490,337.5      c0,12.406-10.094,22.5-22.5,22.5c-13.035,0-406.284,0-425,0C30.094,360,20,349.906,20,337.5v-25c0-12.406,10.094-22.5,22.5-22.5      c18.206,0,404.159,0,425,0c12.406,0,22.5,10.094,22.5,22.5V337.5z"/></g></g></g></g><g id="Layer_1"/></svg>